<svg width="48" height="48" viewBox="0 0 264 260" fill="none"
                                xmlns="http://www.w3.org/2000/svg">
                                <path
                                    d="M131.798 0.0828258C96.8394 0.0938088 63.3163 13.7925 38.6007 38.1664C13.8851 62.5404 0.0006445 95.5939 0.000646275 130.058C-0.0346655 141.235 1.37721 152.37 4.20203 163.194C17.8148 168.085 32.6142 168.778 46.6361 165.182C73.9031 158.804 98.9854 146.129 126.21 139.875C123.044 124.103 121.817 108.013 122.555 91.9521C123.269 79.2362 122.555 56.7038 131.336 46.3902C132.619 44.7815 134.244 43.4697 136.097 42.5471C137.95 41.6245 139.986 41.1136 142.061 41.0504C144.136 40.9872 146.199 41.3733 148.106 42.1814C150.014 42.9895 151.718 44.1999 153.099 45.7275C161.25 53.3488 160.62 71.822 161.124 82.0527C162.667 108.975 159.105 135.944 150.62 161.579C148.53 154.919 146.916 148.124 145.789 141.242C150.962 116.505 151.546 91.0483 147.511 66.1061C146.419 59.5203 141.377 43.2424 138.142 60.2659C134.063 80.3027 133.142 100.84 135.411 121.153C135.958 125.295 136.588 129.686 137.302 134.118C137.302 135.319 139.781 147.123 140.033 148.159C140.537 150.313 141.083 152.301 141.629 154.538C142.92 160.045 144.72 165.425 147.007 170.608C149.832 177.989 153.663 184.956 158.393 191.318C164.443 199.23 173.308 209.17 185.618 204.78C194.329 201.224 202.626 196.753 210.364 191.443C219.551 185.311 229.184 179.856 239.186 175.123C245.014 172.507 251.155 170.628 257.462 169.532C263.777 150.045 265.337 129.364 262.016 109.171C258.694 88.9777 250.585 69.8426 238.347 53.3219C226.11 36.8012 210.089 23.3616 191.59 14.0961C173.09 4.83062 152.633 0.00097925 131.882 0L131.798 0.0828258Z"
                                    fill="white" />
                                <path
                                    d="M72.9424 196.373C79.3286 220.273 104.201 208.799 117.225 196.705C124.614 189.743 130.664 181.52 135.081 172.433C132.415 165.059 130.198 157.535 128.443 149.9L128.065 148.202C105.209 154.291 66.3463 171.48 72.9424 196.373Z"
                                    fill="white" />
                                <path
                                    d="M181.333 214.267C161.25 214.847 148.394 200.929 140.033 183.989C135.066 192.737 128.293 200.36 120.151 206.368C112.01 212.375 102.681 216.632 92.7674 218.864C73.0209 223.006 54.0727 205.527 62.3914 185.231C65.7729 177.234 70.8929 170.066 77.3904 164.231C59.5765 170.569 41.5945 175.995 22.1421 176.036C17.3725 176.04 12.6147 175.568 7.94141 174.628C17.1024 199.331 33.6476 220.713 55.3922 235.953C77.1369 251.192 103.059 259.571 129.734 259.984C156.41 260.397 182.586 252.824 204.805 238.265C227.024 223.706 244.242 202.846 254.185 178.438C243.074 182.469 232.472 187.75 222.59 194.178C210.869 201.509 195.912 213.894 181.333 214.267Z"
                                    fill="white" />
                            </svg>
                           